<svg width="769.56875px" height="209.6px" xmlns="http://www.w3.org/2000/svg" viewBox="-134.784375 -29.799999999999997 769.56875 209.6" style="background: rgba(0, 0, 0, 0);" preserveAspectRatio="xMidYMid"><defs><filter id="editing-hole" x="-100%" y="-100%" width="300%" height="300%"><feFlood flood-color="#000000" result="black"></feFlood><feMorphology operator="dilate" radius="2" in="SourceGraphic" result="erode"></feMorphology><feGaussianBlur in="erode" stdDeviation="4" result="blur"></feGaussianBlur><feOffset in="blur" dx="2" dy="2" result="offset"></feOffset><feComposite operator="atop" in="offset" in2="black" result="merge"></feComposite><feComposite operator="in" in="merge" in2="SourceGraphic" result="inner-shadow"></feComposite></filter></defs><g filter="url(#editing-hole)"><g transform="translate(-25.830008506774902, 109.02999591827393)"><path d="M8.11 0.20L8.11 0.20L3.71 0L3.71-22.75L3.71-22.75Q4.20-30.08 4.49-35.74L4.49-35.74L4.49-35.74Q4.79-41.41 5.57-45.51L5.57-45.51L5.57-45.51Q6.35-49.61 8.11-52.39L8.11-52.39L8.11-52.39Q9.86-55.18 13.38-56.84L13.38-56.84L13.38-56.84Q19.73-59.96 36.72-59.96L36.72-59.96L36.72-59.96Q44.04-59.96 49.12-58.54L49.12-58.54L49.12-58.54Q54.20-57.13 56.64-55.86L56.64-55.86L56.64-55.86Q62.21-53.13 62.21-48.24L62.21-48.24L62.21-48.24Q62.21-43.36 59.42-39.40L59.42-39.40L59.42-39.40Q56.64-35.45 52.20-32.57L52.20-32.57L52.20-32.57Q47.75-29.69 42.19-27.83L42.19-27.83L42.19-27.83Q36.62-25.98 31.05-24.80L31.05-24.80L31.05-24.80Q21.09-22.85 11.91-22.85L11.91-22.85L11.52-0.98L11.52-0.98Q11.52 0.20 8.11 0.20ZM11.82-33.89L11.82-33.89L11.82-33.89Q11.82-29.00 16.02-29.00L16.02-29.00L16.02-29.00Q16.60-29.00 18.07-29.05L18.07-29.05L18.07-29.05Q19.53-29.10 23.19-29.35L23.19-29.35L23.19-29.35Q26.86-29.59 30.96-30.32L30.96-30.32L30.96-30.32Q35.06-31.05 39.21-32.23L39.21-32.23L39.21-32.23Q43.36-33.40 46.68-35.16L46.68-35.16L46.68-35.16Q54.20-39.26 54.20-45.61L54.20-45.61L54.20-45.61Q52.73-51.95 42.58-53.71L42.58-53.71L42.58-53.71Q39.55-54.30 37.16-54.30L37.16-54.30L37.16-54.30Q34.77-54.30 31.49-54.05L31.49-54.05L31.49-54.05Q28.22-53.81 23.93-52.54L23.93-52.54L23.93-52.54Q19.63-51.27 16.70-49.12L16.70-49.12L16.70-49.12Q13.77-46.97 13.48-44.14L13.48-44.14L13.48-44.14Q13.38-42.97 12.99-41.41L12.99-41.41L12.99-41.41Q11.82-36.43 11.82-33.89ZM86.33-6.84L86.33-6.84L86.33-6.84Q94.92-6.84 112.21-14.65L112.21-14.65L112.21-14.65Q113.28-14.65 113.96-13.92L113.96-13.92L113.96-13.92Q114.65-13.18 114.65-12.21L114.65-12.21L114.65-12.21Q110.74-5.57 99.71-1.86L99.71-1.86L99.71-1.86Q88.67 1.86 79.10-0.59L79.10-0.59L79.10-0.59Q68.26-3.42 65.92-12.79L65.92-12.79L65.92-12.79Q65.72-14.65 65.72-17.77L65.72-17.77L65.72-17.77Q65.72-20.90 67.33-26.03L67.33-26.03L67.33-26.03Q68.95-31.15 72.85-35.74L72.85-35.74L72.85-35.74Q76.76-40.33 82.03-42.97L82.03-42.97L82.03-42.97Q87.30-45.61 93.26-45.61L93.26-45.61L93.26-45.61Q98.93-45.61 105.96-41.70L105.96-41.70L105.96-41.70Q109.28-39.84 111.23-37.50L111.23-37.50L111.23-37.50Q113.18-35.16 113.18-32.71L113.18-32.71L113.18-32.71Q113.18-32.03 113.09-31.35L113.09-31.35L113.09-31.35Q112.89-25.39 107.32-23.83L107.32-23.83L107.32-23.83Q104.88-23.14 101.66-23.14L101.66-23.14L87.60-23.73L87.60-23.73Q80.57-23.73 76.86-20.70L76.86-20.70L76.86-20.70Q74.71-19.04 73.83-15.72L73.83-15.72L73.83-15.72Q76.27-6.84 86.33-6.84ZM103.76-37.01L103.76-37.01L103.76-37.01Q101.56-38.57 99.22-39.26L99.22-39.26L99.22-39.26Q96.88-39.94 95.31-39.94L95.31-39.94L95.31-39.94Q93.75-39.94 90.23-38.92L90.23-38.92L90.23-38.92Q86.72-37.89 83.98-36.62L83.98-36.62L83.98-36.62Q77.25-33.50 77.25-30.08L77.25-30.08L77.25-30.08Q85.06-29.39 88.96-29.39L88.96-29.39L88.96-29.39Q99.80-29.39 103.61-31.25L103.61-31.25L103.61-31.25Q105.96-32.23 105.96-33.69L105.96-33.69L105.96-33.69Q105.96-35.45 103.76-37.01ZM135.25-9.38L135.25-9.38L135.45-25L135.45-25Q135.45-28.71 134.77-31.35L134.77-31.35L119.63-31.35L119.43-38.09L134.08-38.09L134.08-63.28L134.08-63.28Q134.38-64.16 135.25-65.04L135.25-65.04L135.25-65.04Q136.62-66.41 137.55-66.41L137.55-66.41L137.55-66.41Q138.48-66.41 139.16-66.21L139.16-66.21L139.16-66.21Q139.84-66.02 140.63-64.84L140.63-64.84L140.63-64.84Q142.19-58.40 142.19-45.41L142.19-45.41L142.19-45.41Q142.19-42.19 142.48-39.06L142.48-39.06L142.48-39.06Q145.61-39.45 148.73-39.45L148.73-39.45L148.73-39.45Q148.73-39.45 153.81-39.45L153.81-39.45L153.81-39.45Q155.66-39.45 157.23-39.65L157.23-39.65L156.93-32.62L142.68-33.01L143.16 0.68L143.16 0.68Q141.41 1.46 140.14 1.46L140.14 1.46L140.14 1.46Q135.25 1.46 135.25-9.38ZM163.57-45.90L169.73-45.90L169.73-45.90Q171.00-27.64 171.88-3.61L171.88-3.61L171.88-3.61Q171.29-0.59 167.19-0.59L167.19-0.59L167.19-0.59Q166.11-0.59 164.99-1.03L164.99-1.03L164.99-1.03Q163.87-1.46 163.57-2.25L163.57-2.25L163.57-45.90ZM160.64-59.18L160.64-59.18L160.64-59.18Q160.64-62.60 164.65-62.60L164.65-62.60L164.65-62.60Q167.29-62.60 168.95-61.43L168.95-61.43L168.95-61.43Q169.24-60.35 169.24-59.33L169.24-59.33L169.24-59.33Q169.24-58.30 168.46-57.32L168.46-57.32L168.46-57.32Q167.68-56.35 166.11-56.35L166.11-56.35L166.11-56.35Q164.55-56.35 162.99-57.08L162.99-57.08L162.99-57.08Q161.43-57.81 160.64-59.18ZM190.82-9.38L190.82-9.38L191.02-25L191.02-25Q191.02-28.71 190.33-31.35L190.33-31.35L175.20-31.35L175-38.09L189.65-38.09L189.65-63.28L189.65-63.28Q189.94-64.16 190.82-65.04L190.82-65.04L190.82-65.04Q192.19-66.41 193.12-66.41L193.12-66.41L193.12-66.41Q194.04-66.41 194.73-66.21L194.73-66.21L194.73-66.21Q195.41-66.02 196.19-64.84L196.19-64.84L196.19-64.84Q197.75-58.40 197.75-45.41L197.75-45.41L197.75-45.41Q197.75-42.19 198.05-39.06L198.05-39.06L198.05-39.06Q201.17-39.45 204.30-39.45L204.30-39.45L204.30-39.45Q204.30-39.45 209.38-39.45L209.38-39.45L209.38-39.45Q211.23-39.45 212.79-39.65L212.79-39.65L212.50-32.62L198.24-33.01L198.73 0.68L198.73 0.68Q196.97 1.46 195.70 1.46L195.70 1.46L195.70 1.46Q190.82 1.46 190.82-9.38ZM219.14-45.90L225.29-45.90L225.29-45.90Q226.56-27.64 227.44-3.61L227.44-3.61L227.44-3.61Q226.86-0.59 222.75-0.59L222.75-0.59L222.75-0.59Q221.68-0.59 220.56-1.03L220.56-1.03L220.56-1.03Q219.43-1.46 219.14-2.25L219.14-2.25L219.14-45.90ZM216.21-59.18L216.21-59.18L216.21-59.18Q216.21-62.60 220.21-62.60L220.21-62.60L220.21-62.60Q222.85-62.60 224.51-61.43L224.51-61.43L224.51-61.43Q224.80-60.35 224.80-59.33L224.80-59.33L224.80-59.33Q224.80-58.30 224.02-57.32L224.02-57.32L224.02-57.32Q223.24-56.35 221.68-56.35L221.68-56.35L221.68-56.35Q220.12-56.35 218.55-57.08L218.55-57.08L218.55-57.08Q216.99-57.81 216.21-59.18ZM234.08-18.55L234.08-18.55L234.08-18.55Q234.08-30.08 244.04-37.11L244.04-37.11L244.04-37.11Q251.95-42.68 263.09-43.85L263.09-43.85L263.09-43.85Q263.67-43.85 265.82-43.85L265.82-43.85L265.82-43.85Q267.97-43.85 271.58-42.58L271.58-42.58L271.58-42.58Q279.59-39.84 282.52-32.91L282.52-32.91L282.52-32.91Q283.69-30.18 283.69-28.27L283.69-28.27L283.69-28.27Q283.69-26.37 283.59-25.59L283.59-25.59L283.59-25.59Q283.59-13.38 274.32-6.35L274.32-6.35L274.32-6.35Q265.72 0.10 252.83 0.10L252.83 0.10L252.83 0.10Q243.55 0.10 238.82-4.20L238.82-4.20L238.82-4.20Q234.08-8.50 234.08-18.55ZM240.82-16.21L240.82-16.21L240.82-16.21Q240.82-10.16 244.04-8.01L244.04-8.01L244.04-8.01Q246.48-6.45 252.25-6.45L252.25-6.45L252.25-6.45Q258.01-6.45 262.40-7.32L262.40-7.32L262.40-7.32Q266.80-8.20 270.21-10.35L270.21-10.35L270.21-10.35Q277.54-15.04 277.54-24.90L277.54-24.90L277.54-24.90Q277.54-30.76 274.41-34.47L274.41-34.47L274.41-34.47Q271.00-38.48 265.43-38.48L265.43-38.48L265.43-38.48Q261.62-37.79 257.76-37.01L257.76-37.01L257.76-37.01Q253.91-36.23 250.49-33.98L250.49-33.98L250.49-33.98Q243.07-29.20 240.82-16.21ZM325.88-15.43L325.98-21.39L325.98-21.39Q325.98-33.01 324.71-38.48L324.71-38.48L324.71-38.48Q325.49-39.94 322.36-39.94L322.36-39.94L322.36-39.94Q319.04-39.94 313.77-38.28L313.77-38.28L313.77-38.28Q308.50-36.62 305.18-34.96L305.18-34.96L305.18-34.96Q297.27-31.15 296.39-27.54L296.39-27.54L296.39-0.98L289.84-0.98L289.84-0.98Q288.57-4.30 288.57-19.63L288.57-19.63L288.57-19.63Q288.57-33.30 289.11-39.75L289.11-39.75L289.11-39.75Q289.65-46.19 289.94-47.07L289.94-47.07L289.94-47.07Q292.48-48.73 294.04-48.73L294.04-48.73L294.04-48.73Q296.48-48.73 296.48-42.97L296.48-42.97L296.48-42.97Q296.48-40.72 296.24-38.62L296.24-38.62L296.24-38.62Q296.00-36.52 296.00-35.74L296.00-35.74L296.00-35.74Q311.82-47.36 320.51-47.36L320.51-47.36L320.51-47.36Q330.37-47.36 331.74-31.45L331.74-31.45L331.74-31.45Q332.32-25.88 332.32-16.02L332.32-16.02L332.23-8.30L332.23-8.30Q332.23-4.00 332.42 0L332.42 0L332.42 0Q331.45 0.59 330.86 0.59L330.86 0.59L330.86 0.59Q330.57 0.49 329.59 0.29L329.59 0.29L329.59 0.29Q328.61 0.10 327.05 0L327.05 0L327.05 0Q326.07-3.91 325.98-7.96L325.98-7.96L325.98-7.96Q325.88-12.01 325.88-15.43L325.88-15.43ZM339.75 0.10L339.75 0.10L339.75 0.10Q337.50-0.10 337.50-1.86L337.50-1.86L337.50-1.86Q337.50-4.00 339.94-5.86L339.94-5.86L339.94-5.86Q340.92-6.54 341.46-6.54L341.46-6.54L341.46-6.54Q341.99-6.54 342.29-6.45L342.29-6.45L342.29-6.45Q344.34-6.45 345.07-5.62L345.07-5.62L345.07-5.62Q345.80-4.79 345.80-3.42L345.80-3.42L345.80-3.42Q345.80-2.05 345.21-1.37L345.21-1.37L345.21-1.37Q344.63-0.68 343.75-0.39L343.75-0.39L343.75-0.39Q342.29 0.10 339.75 0.10ZM353.71-37.89L353.71-37.89L353.71-37.89Q353.52-43.16 353.32-47.31L353.32-47.31L353.32-47.31Q353.13-51.46 353.08-53.47L353.08-53.47L353.08-53.47Q353.03-55.47 351.46-63.28L351.46-63.28L351.46-63.28Q352.34-64.45 353.17-65.53L353.17-65.53L353.17-65.53Q354.00-66.60 355.57-66.60L355.57-66.60L355.57-66.60Q358.98-66.60 360.84-37.79L360.84-37.79L360.84-37.79Q361.82-21.09 361.82-4.39L361.82-4.39L361.82-4.39Q361.82 0.10 355.57 0.10L355.57 0.10L354.79 0L354.79 0Q354.79-5.08 354.49-12.99L354.49-12.99L354.49-12.99Q354.20-20.90 354.05-26.76L354.05-26.76L354.05-26.76Q353.91-32.62 353.71-37.89ZM370.12-18.55L370.12-18.55L370.12-18.55Q370.12-30.08 380.08-37.11L380.08-37.11L380.08-37.11Q387.99-42.68 399.12-43.85L399.12-43.85L399.12-43.85Q399.71-43.85 401.86-43.85L401.86-43.85L401.86-43.85Q404.00-43.85 407.62-42.58L407.62-42.58L407.62-42.58Q415.63-39.84 418.55-32.91L418.55-32.91L418.55-32.91Q419.73-30.18 419.73-28.27L419.73-28.27L419.73-28.27Q419.73-26.37 419.63-25.59L419.63-25.59L419.63-25.59Q419.63-13.38 410.35-6.35L410.35-6.35L410.35-6.35Q401.76 0.10 388.87 0.10L388.87 0.10L388.87 0.10Q379.59 0.10 374.85-4.20L374.85-4.20L374.85-4.20Q370.12-8.50 370.12-18.55ZM376.86-16.21L376.86-16.21L376.86-16.21Q376.86-10.16 380.08-8.01L380.08-8.01L380.08-8.01Q382.52-6.45 388.28-6.45L388.28-6.45L388.28-6.45Q394.04-6.45 398.44-7.32L398.44-7.32L398.44-7.32Q402.83-8.20 406.25-10.35L406.25-10.35L406.25-10.35Q413.57-15.04 413.57-24.90L413.57-24.90L413.57-24.90Q413.57-30.76 410.45-34.47L410.45-34.47L410.45-34.47Q407.03-38.48 401.46-38.48L401.46-38.48L401.46-38.48Q397.66-37.79 393.80-37.01L393.80-37.01L393.80-37.01Q389.94-36.23 386.52-33.98L386.52-33.98L386.52-33.98Q379.10-29.20 376.86-16.21ZM463.43-10.30L463.43-10.30L463.43-10.30Q467.38-11.91 471.19-13.28L471.19-13.28L471.19-13.28Q475-14.65 478.47-14.65L478.47-14.65L478.47-14.65Q481.93-14.65 481.93-12.50L481.93-12.50L481.93-12.50Q481.93-12.01 481.69-10.99L481.69-10.99L481.69-10.99Q481.45-9.96 479.05-8.54L479.05-8.54L479.05-8.54Q476.66-7.13 473.19-5.86L473.19-5.86L473.19-5.86Q469.73-4.59 465.63-3.52L465.63-3.52L465.63-3.52Q461.52-2.44 457.62-1.66L457.62-1.66L457.62-1.66Q449.51 0 446.09 0L446.09 0L446.09 0Q442.68 0 438.72-0.78L438.72-0.78L438.72-0.78Q434.77-1.56 431.35-3.32L431.35-3.32L431.35-3.32Q423.44-7.42 423.44-15.43L423.44-15.43L423.44-15.43Q423.44-16.02 423.44-17.77L423.44-17.77L423.44-17.77Q423.44-19.53 424.90-22.80L424.90-22.80L424.90-22.80Q426.37-26.07 429.30-29.35L429.30-29.35L429.30-29.35Q432.23-32.62 436.13-35.35L436.13-35.35L436.13-35.35Q444.34-41.21 453.32-42.97L453.32-42.97L453.32-42.97Q456.45-43.65 458.54-43.65L458.54-43.65L458.54-43.65Q460.64-43.65 462.01-43.60L462.01-43.60L462.01-43.60Q463.38-43.55 464.84-43.41L464.84-43.41L464.84-43.41Q466.31-43.26 467.38-42.68L467.38-42.68L467.38-42.68Q469.92-41.41 469.92-37.70L469.92-37.70L469.92-37.70Q469.92-35.35 466.60-33.11L466.60-33.11L466.60-33.11Q465.72-32.52 465.04-32.03L465.04-32.03L465.04-32.03Q464.55-34.28 463.77-35.84L463.77-35.84L463.77-35.84Q462.99-37.40 460.35-37.40L460.35-37.40L460.35-37.40Q448.83-34.96 440.53-30.08L440.53-30.08L440.53-30.08Q431.15-24.51 431.15-18.36L431.15-18.36L431.15-18.36Q431.15-17.68 431.25-16.89L431.25-16.89L431.25-16.89Q431.25-10.64 436.04-8.01L436.04-8.01L436.04-8.01Q439.65-6.05 445.36-6.05L445.36-6.05L445.36-6.05Q451.07-6.05 455.27-7.37L455.27-7.37L455.27-7.37Q459.47-8.69 463.43-10.30ZM525.59-16.21L525.59-16.21L525.59-16.21Q518.26-4.69 506.05-1.95L506.05-1.95L506.05-1.95Q503.22-1.37 500.93-1.37L500.93-1.37L500.93-1.37Q498.63-1.37 497.12-1.42L497.12-1.42L497.12-1.42Q495.61-1.46 493.75-1.86L493.75-1.86L493.75-1.86Q491.89-2.25 490.33-3.13L490.33-3.13L490.33-3.13Q486.72-5.18 486.72-8.89L486.72-8.89L486.72-8.89Q486.33-10.64 486.33-12.84L486.33-12.84L486.33-12.84Q486.33-15.04 487.30-18.65L487.30-18.65L487.30-18.65Q488.28-22.27 490.87-26.46L490.87-26.46L490.87-26.46Q493.46-30.66 497.17-34.18L497.17-34.18L497.17-34.18Q504.88-41.60 513.87-43.75L513.87-43.75L513.87-43.75Q516.50-44.34 518.70-44.34L518.70-44.34L518.70-44.34Q520.90-44.34 522.66-44.04L522.66-44.04L522.66-44.04Q528.32-44.04 530.27-36.33L530.27-36.33L530.27-36.33Q531.54-31.45 531.79-22.71L531.79-22.71L531.79-22.71Q532.03-13.96 532.28-9.23L532.28-9.23L532.28-9.23Q532.52-4.49 533.50-0.59L533.50-0.59L527.73-0.59L527.73-0.59Q527.34-3.22 527.15-5.27L527.15-5.27L527.15-5.27Q526.95-7.32 526.76-9.08L526.76-9.08L526.76-9.08Q526.27-13.18 525.59-16.21ZM525.20-31.35L525.20-31.35L525.20-31.35Q525.20-37.01 519.63-37.01L519.63-37.01L519.63-37.01Q518.95-37.11 518.26-37.11L518.26-37.11L518.26-37.11Q511.13-37.11 503.22-30.27L503.22-30.27L503.22-30.27Q499.51-27.15 496.88-23.24L496.88-23.24L496.88-23.24Q492.97-17.68 492.97-13.28L492.97-13.28L492.97-13.28Q492.97-7.52 499.61-6.45L499.61-6.45L499.61-6.45Q508.40-6.64 516.41-14.45L516.41-14.45L516.41-14.45Q519.82-17.87 522.07-21.88L522.07-21.88L522.07-21.88Q525.20-27.25 525.20-31.35ZM539.84-37.89L539.84-37.89L539.84-37.89Q539.65-43.16 539.45-47.31L539.45-47.31L539.45-47.31Q539.26-51.46 539.21-53.47L539.21-53.47L539.21-53.47Q539.16-55.47 537.60-63.28L537.60-63.28L537.60-63.28Q538.48-64.45 539.31-65.53L539.31-65.53L539.31-65.53Q540.14-66.60 541.70-66.60L541.70-66.60L541.70-66.60Q545.12-66.60 546.97-37.79L546.97-37.79L546.97-37.79Q547.95-21.09 547.95-4.39L547.95-4.39L547.95-4.39Q547.95 0.10 541.70 0.10L541.70 0.10L540.92 0L540.92 0Q540.92-5.08 540.63-12.99L540.63-12.99L540.63-12.99Q540.33-20.90 540.19-26.76L540.19-26.76L540.19-26.76Q540.04-32.62 539.84-37.89Z" fill="#ccc"></path></g></g></svg>